
<svg xmlns="http://www.w3.org/2000/svg"
     class="svg-snoweb svg-theme-light"
     x="0"
     y="0"
     width="100%"
     height="100%"
     viewBox="0 0 100 100"
     preserveAspectRatio="xMidYMid meet"
>
<defs>
    <style>
        
            
            
            
        

        .svg-fill-primary {
            fill: #FFDB6E;
        }

        .svg-fill-secondary {
            fill: #FFDB6E;
        }

        .svg-fill-tertiary {
            fill: #FFDB6E;
        }

        .svg-stroke-primary {
            stroke: #FFDB6E;
        }

        .svg-stroke-secondary {
            stroke: #FFDB6E;
        }

        .svg-stroke-tertiary {
            stroke: #FFDB6E;
        }
    </style>
</defs>
    <path d="M50,70c-15.5,0-28-5.4-28-12V70c0,6.6,12.5,12,28,12s28-5.4,28-12V58C78,64.6,65.5,70,50,70Z"
          class="svg-fill-primary"/>
    <path d="M50,50c-15.5,0-28-5.4-28-12V50c0,6.6,12.5,12,28,12s28-5.4,28-12V38C78,44.6,65.5,50,50,50Z"
          class="svg-fill-primary"/>
    <ellipse cx="50" cy="30" rx="28" ry="12" class="svg-fill-primary"/>
</svg>