
<svg xmlns="http://www.w3.org/2000/svg"
     class="svg-snoweb svg-theme-light"
     x="0"
     y="0"
     width="100%"
     height="100%"
     viewBox="0 0 100 100"
     preserveAspectRatio="xMidYMid meet"
>
<defs>
    <style>
        
            
            
            
        

        .svg-fill-primary {
            fill: #090D49;
        }

        .svg-fill-secondary {
            fill: #65CDAE;
        }

        .svg-fill-tertiary {
            fill: #E5E7EB;
        }

        .svg-stroke-primary {
            stroke: #090D49;
        }

        .svg-stroke-secondary {
            stroke: #65CDAE;
        }

        .svg-stroke-tertiary {
            stroke: #E5E7EB;
        }
    </style>
</defs>
    

<clipPath id="clip-path-202210-0518-2240-d872428f-565f-496b-acff-ba45c543f88e">
    <rect x="0" y="95" width="100" height="5"></rect>
</clipPath>
<g clip-path="url(#clip-path-202210-0518-2240-d872428f-565f-496b-acff-ba45c543f88e)">
    <rect 
            class="svg-fill-tertiary"
            x="0"
            y="95"
            width="100"
            height="5">
    </rect>
    <g transform="translate(0, 50)">
        <circle 
                class="svg-fill-secondary svg-builder-circle"
                cx="50"
                cy="50"
                r="50">
        </circle>
    </g>
</g>

    <g transform="translate(20.00, 20.00) scale(0.60, 0.60)">
        
    <path d="M19.5,30.9V69.1c0,8.4,13.6,15.2,30.5,15.2s30.5-6.8,30.5-15.2V30.9m-61,0c0,8.4,13.6,15.3,30.5,15.3s30.5-6.9,30.5-15.3m-61,0c0-8.4,13.6-15.2,30.5-15.2s30.5,6.8,30.5,15.2m0,19.1c0,8.4-13.6,15.3-30.5,15.3S19.5,58.4,19.5,50"
      fill="none" class="svg-stroke-primary" stroke-linecap="round" stroke-linejoin="round" stroke-width="8"/>


    </g>
</svg>