
<svg xmlns="http://www.w3.org/2000/svg"
     class="svg-snoweb svg-theme-light"
     x="0"
     y="0"
     width="100%"
     height="100%"
     viewBox="0 0 100 100"
     preserveAspectRatio="xMidYMid meet"
>
<defs>
    <style>
        
            
            
            
        

        .svg-fill-primary {
            fill: #FFDB6E;
        }

        .svg-fill-secondary {
            fill: #FFDB6E;
        }

        .svg-fill-tertiary {
            fill: #FFDB6E;
        }

        .svg-stroke-primary {
            stroke: #FFDB6E;
        }

        .svg-stroke-secondary {
            stroke: #FFDB6E;
        }

        .svg-stroke-tertiary {
            stroke: #FFDB6E;
        }
    </style>
</defs>
    <path d="M57.8,42.2,50,46.1m0,0-7.8-3.9M50,46.1v9.8M81.4,30.4l-7.9,3.9m7.9-3.9-7.9-3.9m7.9,3.9v9.8M57.8,18.6,50,14.7l-7.8,3.9M18.6,30.4l7.9-3.9m-7.9,3.9,7.9,3.9m-7.9-3.9v9.8M50,85.3l-7.8-3.9M50,85.3l7.8-3.9M50,85.3V75.5m-23.5-2-7.9-3.9V59.8M73.5,73.5l7.9-3.9V59.8"
      fill="none" class="svg-stroke-primary" stroke-linecap="round" stroke-linejoin="round" stroke-width="8"/>

</svg>