
<svg xmlns="http://www.w3.org/2000/svg"
     class="svg-snoweb svg-theme-light"
     x="0"
     y="0"
     width="100%"
     height="100%"
     viewBox="0 0 100 100"
     preserveAspectRatio="xMidYMid meet"
>
<defs>
    <style>
        
            
            
            
        

        .svg-fill-primary {
            fill: #FFDB6E;
        }

        .svg-fill-secondary {
            fill: #FFDB6E;
        }

        .svg-fill-tertiary {
            fill: #FFDB6E;
        }

        .svg-stroke-primary {
            stroke: #FFDB6E;
        }

        .svg-stroke-secondary {
            stroke: #FFDB6E;
        }

        .svg-stroke-tertiary {
            stroke: #FFDB6E;
        }
    </style>
</defs>
    

<clipPath id="clip-path-202210-0518-3757-99501946-4168-4ad4-961e-84f84fdca434">
    <rect x="0" y="95" width="100" height="5"></rect>
</clipPath>
<g clip-path="url(#clip-path-202210-0518-3757-99501946-4168-4ad4-961e-84f84fdca434)">
    <rect opacity="0.25" filter="url(#svg-filter-glass)"
            class="svg-fill-tertiary"
            x="0"
            y="95"
            width="100"
            height="5">
    </rect>
    <g transform="translate(0, 50)">
        <circle opacity="0.25" filter="url(#svg-filter-glass)"
                class="svg-fill-secondary svg-builder-circle"
                cx="50"
                cy="50"
                r="50">
        </circle>
    </g>
</g>

    <g transform="translate(20.00, 20.00) scale(0.60, 0.60)">
        
    <path d="M35.8,39.4,46.5,50,35.8,60.6m17.7,0H64.2m-39,17.8H74.8a7.1,7.1,0,0,0,7.1-7.1V28.7a7.1,7.1,0,0,0-7.1-7.1H25.2a7.1,7.1,0,0,0-7.1,7.1V71.3A7.1,7.1,0,0,0,25.2,78.4Z"
      fill="none" class="svg-stroke-primary" stroke-linecap="round" stroke-linejoin="round" stroke-width="8"/>


    </g>
</svg>