
<svg xmlns="http://www.w3.org/2000/svg"
     class="svg-snoweb svg-theme-light"
     x="0"
     y="0"
     width="100%"
     height="100%"
     viewBox="0 0 100 100"
     preserveAspectRatio="xMidYMid meet"
>
<defs>
    <style>
        
            
            
            
        

        .svg-fill-primary {
            fill: #FFDB6E;
        }

        .svg-fill-secondary {
            fill: #FFDB6E;
        }

        .svg-fill-tertiary {
            fill: #FFDB6E;
        }

        .svg-stroke-primary {
            stroke: #FFDB6E;
        }

        .svg-stroke-secondary {
            stroke: #FFDB6E;
        }

        .svg-stroke-tertiary {
            stroke: #FFDB6E;
        }
    </style>
</defs>
    <path d="M20.2,26.6a8.5,8.5,0,0,1,8.5-8.5H71.3a8.5,8.5,0,0,1,8.5,8.5v34a8.6,8.6,0,0,1-8.5,8.6H61.8l.6,2,3.4,3.5a4.1,4.1,0,0,1,.9,4.6,4.2,4.2,0,0,1-3.9,2.6H37.2a4.2,4.2,0,0,1-3.9-2.6,4.1,4.1,0,0,1,.9-4.6l3.4-3.5.6-2H28.7a8.6,8.6,0,0,1-8.5-8.6ZM44.8,56.4H28.7V26.6H71.3V56.4H44.8Z"
          class="svg-fill-primary" fill-rule="evenodd"/>
</svg>